<svg xmlns="http://www.w3.org/2000/svg" viewBox="-2.5 -49.1 234.1 234.1">
<path d="M52,89.2 L19.200000000000003,76.6 L34.9,100 L19.200000000000003,123.4 L52,110.8" fill="none" stroke="#1b2a3a" stroke-width="7.5" stroke-linecap="round" stroke-linejoin="round"/>
<circle cx="114" cy="100" r="60" fill="none" stroke="#1b2a3a" stroke-width="7.5"/>
<circle cx="106.8" cy="98.8" r="9.6" fill="#0d1117"/>
<circle cx="126.0" cy="113.2" r="5.7" fill="#0d1117"/>
<circle cx="93.6" cy="115.6" r="5.1" fill="#0d1117"/>
<circle cx="115.2" cy="82.0" r="4.5" fill="#0d1117"/>
<circle cx="86.4" cy="94.0" r="3.6" fill="#0d1117"/>
<circle cx="134.4" cy="97.6" r="3.1" fill="#0d1117"/>
<circle cx="103.2" cy="130.0" r="3.0" fill="#0d1117"/>
<circle cx="127.2" cy="127.6" r="2.7" fill="#0d1117"/>
<circle cx="111.6" cy="113.2" r="2.7" fill="#0d1117"/>
<circle cx="138.0" cy="118.0" r="2.4" fill="#0d1117"/>
<circle cx="96.0" cy="82.0" r="3.0" fill="#0d1117"/>
<circle cx="120.0" cy="92.8" r="2.7" fill="#0d1117"/>
<circle cx="141.6" cy="106.0" r="2.3" fill="#0d1117"/>
<circle cx="144.0" cy="78.4" r="6.7" fill="#0d1117"/>
<path d="M144.7,36.5 L215.0,0.4 L212.1,-4.1 L144.0,35.4 Z" fill="#7e8d99" stroke="#7e8d99" stroke-width="0.9" stroke-linejoin="round"/>
<path d="M134.4,20.6 L198.2,-25.5 L195.2,-30.1 L133.7,19.5 Z" fill="#7e8d99" stroke="#7e8d99" stroke-width="0.9" stroke-linejoin="round"/>
<circle cx="139.2" cy="28.0" r="8.0" fill="#0d1117"/>
</svg>
