<svg xmlns="http://www.w3.org/2000/svg" viewBox="-7.1 -51.9 243.0 235.9">
<path d="M48,88.5 L12.880000000000003,75.0 L29.6,100 L12.880000000000003,125.0 L48,111.5" fill="none" stroke="#15181c" stroke-width="8.0" stroke-linecap="round" stroke-linejoin="round"/>
<circle cx="114" cy="100" r="64" fill="none" stroke="#15181c" stroke-width="8.0"/>
<circle cx="106.3" cy="98.7" r="10.2" fill="#15181c"/>
<circle cx="126.8" cy="114.1" r="6.1" fill="#15181c"/>
<circle cx="92.2" cy="116.6" r="5.4" fill="#15181c"/>
<circle cx="115.3" cy="80.8" r="4.8" fill="#15181c"/>
<circle cx="84.6" cy="93.6" r="3.8" fill="#15181c"/>
<circle cx="135.8" cy="97.4" r="3.3" fill="#15181c"/>
<circle cx="102.5" cy="132.0" r="3.2" fill="#15181c"/>
<circle cx="128.1" cy="129.4" r="2.9" fill="#15181c"/>
<circle cx="111.4" cy="114.1" r="2.9" fill="#15181c"/>
<circle cx="139.6" cy="119.2" r="2.6" fill="#15181c"/>
<circle cx="94.8" cy="80.8" r="3.2" fill="#15181c"/>
<circle cx="120.4" cy="92.3" r="2.9" fill="#15181c"/>
<circle cx="143.4" cy="106.4" r="2.4" fill="#15181c"/>
<circle cx="146.0" cy="77.0" r="7.2" fill="#15181c"/>
<path d="M146.7,32.1 L221.5,-6.6 L218.3,-11.4 L146.0,31.1 Z" fill="#15181c" stroke="#15181c" stroke-width="0.9" stroke-linejoin="round"/>
<path d="M135.8,15.3 L204.0,-33.5 L200.9,-38.3 L135.1,14.3 Z" fill="#15181c" stroke="#15181c" stroke-width="0.9" stroke-linejoin="round"/>
<circle cx="140.9" cy="23.2" r="8.5" fill="#15181c"/>
</svg>
