<svg xmlns="http://www.w3.org/2000/svg" viewBox="19.9 -1.5 547.8 188.7">
<path d="M66,111.0 L39.0,100.5 L52.0,120 L39.0,139.5 L66,129.0" fill="none" stroke="#1b2a3a" stroke-width="6.25" stroke-linecap="round" stroke-linejoin="round"/>
<circle cx="118" cy="120" r="50" fill="none" stroke="#1b2a3a" stroke-width="6.25"/>
<circle cx="112.0" cy="119.0" r="8.0" fill="#0d1117"/>
<circle cx="128.0" cy="131.0" r="4.8" fill="#0d1117"/>
<circle cx="101.0" cy="133.0" r="4.2" fill="#0d1117"/>
<circle cx="119.0" cy="105.0" r="3.8" fill="#0d1117"/>
<circle cx="95.0" cy="115.0" r="3.0" fill="#0d1117"/>
<circle cx="135.0" cy="118.0" r="2.6" fill="#0d1117"/>
<circle cx="109.0" cy="145.0" r="2.5" fill="#0d1117"/>
<circle cx="129.0" cy="143.0" r="2.2" fill="#0d1117"/>
<circle cx="116.0" cy="131.0" r="2.2" fill="#0d1117"/>
<circle cx="138.0" cy="135.0" r="2.0" fill="#0d1117"/>
<circle cx="103.0" cy="105.0" r="2.5" fill="#0d1117"/>
<circle cx="123.0" cy="114.0" r="2.2" fill="#0d1117"/>
<circle cx="141.0" cy="125.0" r="1.9" fill="#0d1117"/>
<circle cx="143.0" cy="102.0" r="5.6" fill="#0d1117"/>
<path d="M143.7,67.3 L202.9,38.1 L200.4,34.3 L143.2,66.4 Z" fill="#7e8d99" stroke="#7e8d99" stroke-width="0.9" stroke-linejoin="round"/>
<path d="M134.8,53.6 L187.5,14.3 L185.0,10.6 L134.3,52.7 Z" fill="#7e8d99" stroke="#7e8d99" stroke-width="0.9" stroke-linejoin="round"/>
<circle cx="139.0" cy="60.0" r="6.7" fill="#0d1117"/>
<text x="228" y="150" font-family="Helvetica Neue, Helvetica, Arial, sans-serif" font-size="84" font-weight="500" letter-spacing="1.5" fill="#1b2a3a">sashimi</text>
</svg>
